<?xml version="1.0" encoding="UTF-8"?>
<svg version="1.1" xmlns="http://www.w3.org/2000/svg" width="512" height="512">
<path d="M0 0 C0.96838806 0.00215515 1.93677612 0.0043103 2.93450928 0.00653076 C17.25143438 0.05761097 31.24098845 0.44399783 45.3125 3.3125 C46.33859375 3.51649414 47.3646875 3.72048828 48.421875 3.93066406 C93.05493007 13.01327924 134.10503836 32.05912667 168.3125 62.3125 C169.56546875 63.39917969 169.56546875 63.39917969 170.84375 64.5078125 C181.91897413 74.2525714 192.26364912 84.65212414 201.3125 96.3125 C202.075625 97.24707031 202.83875 98.18164062 203.625 99.14453125 C211.46588144 108.93306753 217.93436966 119.53001208 224.3125 130.3125 C224.89644531 131.28993164 224.89644531 131.28993164 225.4921875 132.28710938 C247.32539728 169.26403044 256.79127437 213.36624954 256.625 255.9375 C256.62226578 257.39233292 256.62226578 257.39233292 256.61947632 258.8765564 C256.57408309 273.22806055 256.0687347 287.19192918 253.3125 301.3125 C253.15152832 302.20952637 252.99055664 303.10655273 252.82470703 304.03076172 C242.00212011 363.84088904 207.94435543 421.35495829 159.3125 458.3125 C158.77222168 458.72918945 158.23194336 459.14587891 157.67529297 459.57519531 C147.6802884 467.2584873 137.22040964 474.00092968 126.3125 480.3125 C125.63525879 480.70679199 124.95801758 481.10108398 124.26025391 481.50732422 C101.3416244 494.68961173 75.76677437 503.29510918 49.9375 508.625 C49.22682373 508.77243652 48.51614746 508.91987305 47.78393555 509.07177734 C32.14141634 512.05713787 16.50580394 512.6873098 0.625 512.625 C-0.34239105 512.62317719 -1.3097821 512.62135437 -2.30648804 512.61947632 C-16.63940977 512.57404826 -30.58523917 512.06516072 -44.6875 509.3125 C-45.58452637 509.15152832 -46.48155273 508.99055664 -47.40576172 508.82470703 C-107.21588904 498.00212011 -164.72995829 463.94435543 -201.6875 415.3125 C-202.10418945 414.77222168 -202.52087891 414.23194336 -202.95019531 413.67529297 C-210.6334873 403.6802884 -217.37592968 393.22040964 -223.6875 382.3125 C-224.08179199 381.63525879 -224.47608398 380.95801758 -224.88232422 380.26025391 C-238.06461173 357.3416244 -246.67010918 331.76677437 -252 305.9375 C-252.14743652 305.22682373 -252.29487305 304.51614746 -252.44677734 303.78393555 C-255.43213787 288.14141634 -256.0623098 272.50580394 -256 256.625 C-255.99817719 255.65760895 -255.99635437 254.6902179 -255.99447632 253.69351196 C-255.94904826 239.36059023 -255.44016072 225.41476083 -252.6875 211.3125 C-252.44604248 209.96696045 -252.44604248 209.96696045 -252.19970703 208.59423828 C-241.37712011 148.78411096 -207.31935543 91.27004171 -158.6875 54.3125 C-158.14722168 53.89581055 -157.60694336 53.47912109 -157.05029297 53.04980469 C-147.0552884 45.3665127 -136.59540964 38.62407032 -125.6875 32.3125 C-125.01025879 31.91820801 -124.33301758 31.52391602 -123.63525391 31.11767578 C-100.7166244 17.93538827 -75.14177437 9.32989082 -49.3125 4 C-48.60182373 3.85256348 -47.89114746 3.70512695 -47.15893555 3.55322266 C-31.51685465 0.56794578 -15.88048677 -0.0638264 0 0 Z M-62.6875 46.3125 C-64.45287109 46.83263672 -64.45287109 46.83263672 -66.25390625 47.36328125 C-99.40339426 57.76943121 -128.68581436 76.43486835 -153.6875 100.3125 C-154.61304688 101.18519531 -155.53859375 102.05789062 -156.4921875 102.95703125 C-163.64519512 109.87700888 -169.76713359 117.33031444 -175.6875 125.3125 C-176.43644531 126.31667969 -177.18539062 127.32085937 -177.95703125 128.35546875 C-211.16717035 174.61031114 -225.32122287 233.11602754 -216.71875 289.45703125 C-210.2233486 327.79149844 -194.75685182 369.24314818 -166.6875 397.3125 C-65.3775 296.0025 35.9325 194.6925 140.3125 90.3125 C134.60752529 78.90255059 118.04286527 71.52620838 107.3125 65.3125 C106.34957031 64.75151611 106.34957031 64.75151611 105.3671875 64.17919922 C55.11093307 35.2150228 -7.47619498 29.99069478 -62.6875 46.3125 Z M167.3125 115.3125 C66.0025 216.6225 -35.3075 317.9325 -139.6875 422.3125 C-133.98252529 433.72244941 -117.41786527 441.09879162 -106.6875 447.3125 C-106.04554688 447.68648926 -105.40359375 448.06047852 -104.7421875 448.44580078 C-56.7774405 476.08931322 2.68328812 482.13775368 55.9375 468.4375 C58.40061122 467.74596404 60.85911324 467.03778083 63.3125 466.3125 C64.48941406 465.96574219 65.66632813 465.61898438 66.87890625 465.26171875 C100.02839426 454.85556879 129.31081436 436.19013165 154.3125 412.3125 C155.23804688 411.43980469 156.16359375 410.56710937 157.1171875 409.66796875 C164.27019512 402.74799112 170.39213359 395.29468556 176.3125 387.3125 C177.06144531 386.30832031 177.81039063 385.30414063 178.58203125 384.26953125 C211.79217035 338.01468886 225.94622287 279.50897246 217.34375 223.16796875 C210.8483486 184.83350156 195.38185182 143.38185182 167.3125 115.3125 Z " fill="#000000" transform="translate(255.6875,-0.3125)"/>
</svg>
