<?xml version="1.0" encoding="UTF-8"?>
<svg version="1.1" xmlns="http://www.w3.org/2000/svg" width="512" height="512">
<path d="M0 0 C3.43819694 1.63028896 5.92953053 3.55339549 8.75 6.125 C9.54921875 6.84945313 10.3484375 7.57390625 11.171875 8.3203125 C11.77515625 8.87460937 12.3784375 9.42890625 13 10 C12.43437775 13.82841673 10.7991464 15.57374626 8.09681702 18.27067566 C7.25691727 19.11614456 6.41701752 19.96161346 5.55166626 20.83270264 C4.15916153 22.21138519 4.15916153 22.21138519 2.73852539 23.61791992 C1.75577625 24.60145996 0.77368041 25.58565314 -0.20780945 26.57044983 C-2.87456812 29.24234376 -5.55056739 31.90480445 -8.22844005 34.56555343 C-11.02728018 37.3493646 -13.81802096 40.14127256 -16.60975647 42.9322052 C-21.29822949 47.61698548 -25.99230394 52.2960911 -30.69018555 56.97143555 C-36.72476208 62.97712168 -42.75003115 68.99205635 -48.77240658 75.00997448 C-53.94538034 80.17897137 -59.12260984 85.34369964 -64.30052495 90.50774598 C-65.96727258 92.1703916 -67.63343101 93.83362596 -69.29951286 95.49693871 C-71.91453265 98.10707131 -74.53218771 100.71453277 -77.15193367 103.31992149 C-78.57497218 104.73626568 -79.99558551 106.15504517 -81.4161377 107.57388306 C-82.25885727 108.41089249 -83.10157684 109.24790192 -83.96983337 110.11027527 C-84.70412536 110.84159259 -85.43841734 111.57290991 -86.19496059 112.32638836 C-89.25096652 115.15988168 -91.57041758 115.23646142 -95.69042969 115.18261719 C-99.79554655 114.85802655 -103.66986479 113.72674345 -107.625 112.625 C-121.06021396 108.90381352 -134.29428709 107.61250344 -148.1875 107.6875 C-148.91022095 107.68965515 -149.63294189 107.6918103 -150.37756348 107.69403076 C-161.80858522 107.74856627 -172.85463509 108.30623428 -184 111 C-184.83354004 111.19867676 -185.66708008 111.39735352 -186.52587891 111.60205078 C-217.2228942 119.15327898 -243.21852929 134.31255472 -266 156 C-266.76828125 156.70382813 -267.5365625 157.40765625 -268.328125 158.1328125 C-295.93860332 184.25351681 -312.50190739 224.2580847 -314.546875 261.8671875 C-314.59118652 262.65150146 -314.63549805 263.43581543 -314.68115234 264.24389648 C-314.78928353 266.16249436 -314.89489867 268.08123376 -315 270 C-314.60961516 269.60408441 -314.21923033 269.20816881 -313.81701565 268.80025578 C-304.31001273 259.16065416 -294.78617951 249.53796347 -285.24402523 239.9331522 C-280.62997046 235.28777853 -276.02166524 230.6369866 -271.42602539 225.97338867 C-266.99119783 221.47339406 -262.54189515 216.98819333 -258.08215523 212.51289177 C-256.38283596 210.80248185 -254.68880876 209.0867974 -253.00019646 207.36581612 C-250.63491706 204.95701437 -248.25155218 202.56761714 -245.86303711 200.18188477 C-245.16819717 199.46547318 -244.47335724 198.74906158 -243.75746155 198.01094055 C-239.67822582 193.98287568 -237.00820831 192.00054276 -231 192 C-227.78808594 192.81347656 -227.78808594 192.81347656 -224.484375 194.140625 C-223.57778389 194.49716156 -223.57778389 194.49716156 -222.65287781 194.86090088 C-220.6786977 195.64184132 -218.71469768 196.44553535 -216.75 197.25 C-215.35999524 197.80538699 -213.9694424 198.35940409 -212.57836914 198.91210938 C-209.04497474 200.3209766 -205.51986481 201.7493048 -201.99761963 203.18579102 C-199.00466235 204.40568927 -196.00783798 205.61601732 -193.01171875 206.828125 C-188.60667805 208.6153575 -184.20645735 210.41393593 -179.80859375 212.21875 C-173.187484 214.93154573 -166.54596396 217.5917997 -159.89962769 220.24194336 C-158.01529247 220.99389746 -156.13166124 221.74758562 -154.24829102 222.50195312 C-153.00146614 223.00130533 -151.75463997 223.50065429 -150.5078125 224 C-149.89177658 224.24673462 -149.27574066 224.49346924 -148.64103699 224.74768066 C-144.8210911 226.27607035 -140.99656563 227.79236415 -137.16888428 229.30126953 C-135.2738466 230.04999161 -133.38072074 230.80333107 -131.48828125 231.55859375 C-129.13734727 232.49642579 -126.78331348 233.42653664 -124.42578125 234.34765625 C-123.37519531 234.76917969 -122.32460937 235.19070312 -121.2421875 235.625 C-120.3229248 235.98851562 -119.40366211 236.35203125 -118.45654297 236.7265625 C-111.92975214 240.10995953 -110.20698843 245.60947959 -107.62109375 252.125 C-107.21263718 253.13102264 -106.8041806 254.13704529 -106.38334656 255.17355347 C-105.05809898 258.44511064 -103.74759547 261.72234922 -102.4375 265 C-101.52598083 267.25958124 -100.61370614 269.51885784 -99.70068359 271.77783203 C-94.27791029 285.21746495 -88.91812763 298.68186343 -83.671875 312.19140625 C-81.58317629 317.55202064 -79.43216472 322.88539713 -77.265625 328.21484375 C-76.61429251 329.82237651 -75.96308803 331.42996113 -75.31201172 333.03759766 C-74.35484397 335.4009074 -73.39529741 337.76306629 -72.42681885 340.12176514 C-71.53535258 342.29324317 -70.6535762 344.46844216 -69.7734375 346.64453125 C-69.37430145 347.60515724 -69.37430145 347.60515724 -68.96710205 348.58518982 C-67.30745517 352.72118446 -66.1852933 356.53573177 -66 361 C-68.32965069 366.02752425 -72.34213903 369.60962657 -76.2253418 373.45239258 C-76.95729767 374.1846405 -77.68925354 374.91688843 -78.44338989 375.67132568 C-80.85728786 378.08383338 -83.27818662 380.48918477 -85.69921875 382.89453125 C-87.37688551 384.56846682 -89.05411046 386.2428453 -90.73091125 387.91764832 C-95.14058374 392.31969278 -99.55622989 396.71569742 -103.97314453 401.11047363 C-108.48116049 405.59801335 -112.98350435 410.09123588 -117.48632812 414.58398438 C-126.31867485 423.39489585 -135.15734245 432.19943739 -144 441 C-141.28049033 440.85290597 -138.5612461 440.70234582 -135.84204102 440.54980469 C-134.69459286 440.48827713 -134.69459286 440.48827713 -133.52396393 440.42550659 C-127.8929566 440.10577261 -122.4536057 439.45247902 -116.9375 438.25 C-116.10226807 438.0737207 -115.26703613 437.89744141 -114.40649414 437.71582031 C-82.87721441 430.83146201 -55.41102181 416.1507221 -32 394 C-31.17886719 393.23171875 -30.35773438 392.4634375 -29.51171875 391.671875 C-1.20171133 364.3745117 17.41019872 323.07370466 18.203125 283.66796875 C18.23551386 280.84108599 18.24732159 278.01455779 18.25 275.1875 C18.25100708 274.45178772 18.25201416 273.71607544 18.25305176 272.95806885 C18.23954579 258.36169629 16.70260771 244.87458373 12.8125 230.8125 C10.06898044 220.82437409 10.06898044 220.82437409 11 216 C15.65492742 209.520024 21.87959545 203.98340453 27.51538086 198.37109375 C28.44299225 197.44333633 29.37060364 196.51557892 30.32632446 195.55970764 C32.84632381 193.03942377 35.36937363 190.52221463 37.89302135 188.00558472 C40.53868837 185.36620891 43.18148545 182.72396248 45.82460022 180.08203125 C50.8195527 175.09017519 55.81704664 170.10087166 60.81547982 165.11250114 C66.51038988 159.42880494 72.20242878 153.742237 77.89423931 148.05543709 C89.59298854 136.36711394 101.2953024 124.68236652 113 113 C116.63303084 114.69586126 118.94549046 116.73800488 121.75 119.625 C122.54921875 120.44226563 123.3484375 121.25953125 124.171875 122.1015625 C125.07679688 123.04128906 125.07679688 123.04128906 126 124 C124.56080075 127.329535 122.79175082 129.39911919 120.15724182 131.87466431 C119.35633621 132.63351929 118.5554306 133.39237427 117.73025513 134.17422485 C116.85062103 134.997966 115.97098694 135.82170715 115.06469727 136.67041016 C113.64441346 138.01469802 112.22415711 139.35901547 110.80493724 140.70442653 C109.79843017 141.6583523 108.79132021 142.61164231 107.78365052 143.56433988 C101.30240518 149.69555508 94.89992864 155.9084505 88.49314606 162.11727452 C82.26135295 168.15547766 76.00792747 174.16593626 69.67407227 180.09716797 C64.63633751 184.81495759 59.65714116 189.5865613 54.73731464 194.42728269 C52.13510814 196.9836441 49.5133979 199.50595867 46.81863594 201.96486282 C35.25489963 211.9062574 35.25489963 211.9062574 29.64387131 225.38256073 C30.05760349 232.32153667 31.87183929 238.66255523 34.12703133 245.2046814 C45.161003 280.53638024 32.14460741 329.00628774 15.78417969 360.32763672 C8.43452408 373.85065277 -0.21415111 386.38845827 -10.7578125 397.60546875 C-12.628929 399.60371686 -14.38993106 401.63509164 -16.125 403.75 C-19.40901503 407.59492118 -23.11279778 410.77795483 -27 414 C-27.49580566 414.42410156 -27.99161133 414.84820312 -28.50244141 415.28515625 C-66.64376703 447.85782565 -115.64930889 461.75428593 -165.2578125 458.4140625 C-168.71206821 457.89247973 -171.09179899 457.12443935 -173.3125 454.375 C-174.40918442 450.58645381 -174.49230428 447.62102905 -173 444 C-171.31816101 442.22698975 -171.31816101 442.22698975 -169.0378418 440.32714844 C-164.11108711 436.04536959 -159.42503869 431.57545261 -154.78051758 426.98925781 C-154.02131862 426.24021557 -153.26211966 425.49117332 -152.47991467 424.71943283 C-150.03206059 422.30006554 -147.58765101 419.87727272 -145.14453125 417.453125 C-144.30294653 416.61811211 -143.46136181 415.78309921 -142.59427452 414.9227829 C-138.15699554 410.51787747 -133.72364583 406.10905388 -129.29272461 401.69775391 C-125.62758369 398.05054565 -121.95407642 394.4120807 -118.27319336 390.78076172 C-113.81348284 386.38100233 -109.36845198 381.96691718 -104.93375206 377.54195404 C-103.24388225 375.8606638 -101.54886793 374.18452822 -99.84870338 372.51364899 C-97.48366665 370.18724038 -95.13796921 367.84290216 -92.79614258 365.49316406 C-92.08825089 364.80527298 -91.38035919 364.1173819 -90.65101624 363.40864563 C-87.08754203 360.06724973 -87.08754203 360.06724973 -85.93981934 355.60021973 C-86.28967896 354.74214722 -86.63953857 353.88407471 -87 353 C-87.33422683 351.63005602 -87.6495716 350.25545155 -87.95243835 348.87823486 C-91.51255699 334.11747091 -95.82164622 319.63194709 -100.6875 305.25 C-101.07447556 304.10446781 -101.46145111 302.95893562 -101.8601532 301.77869034 C-111.29887556 274.43013171 -122.09798653 252.29047641 -148.79220009 238.84767532 C-159.04873816 233.96575922 -169.51428663 229.88409576 -180.25 226.1875 C-181.42738613 225.78046341 -182.60477226 225.37342682 -183.81783676 224.95405579 C-195.69528929 220.8975534 -207.66582122 217.20976288 -219.81738281 214.06323242 C-221.13231484 213.71806517 -221.13231484 213.71806517 -222.47381115 213.36592484 C-223.2796782 213.16707561 -224.08554525 212.96822639 -224.91583252 212.76335144 C-225.96064726 212.50326939 -225.96064726 212.50326939 -227.02656937 212.23793316 C-229.3777801 211.9544517 -230.78630344 212.14981813 -233 213 C-234.89175818 214.46710415 -234.89175818 214.46710415 -236.69880676 216.37841797 C-237.41780655 217.10196472 -238.13680634 217.82551147 -238.87759399 218.57098389 C-239.65637909 219.36998108 -240.43516418 220.16897827 -241.23754883 220.9921875 C-242.06569595 221.8295343 -242.89384308 222.6668811 -243.74708557 223.52960205 C-246.01671971 225.82632627 -248.27973677 228.12936296 -250.54095674 230.43436432 C-252.91146997 232.84599303 -255.292907 235.2467693 -257.67399597 237.64794922 C-265.78171749 245.82809166 -273.87169816 254.02564571 -281.94848633 262.23632812 C-286.41029182 266.77186672 -290.8828829 271.29649034 -295.36722773 275.8097477 C-297.73858191 278.1974881 -300.10372346 280.59075332 -302.45530128 282.99798584 C-305.0814266 285.6817105 -307.72547305 288.3464869 -310.37426758 291.0078125 C-311.14697998 291.80680969 -311.91969238 292.60580688 -312.71582031 293.42901611 C-318.67347684 299.35463047 -318.67347684 299.35463047 -322.89457703 300.04638672 C-326.01179774 299.99982377 -327.51434326 299.84122721 -330 298 C-339.18366171 284.22450744 -332.67754472 253.50157706 -329.78588867 237.97973633 C-323.46597124 206.54311762 -309.27299351 177.04309951 -288 153 C-287.31188232 152.22148682 -287.31188232 152.22148682 -286.60986328 151.42724609 C-259.87400495 121.35932234 -225.3178517 101.54052262 -186 93 C-185.27184082 92.83628906 -184.54368164 92.67257813 -183.79345703 92.50390625 C-162.28130874 87.87331707 -137.21178377 88.00420564 -115.609375 92.05078125 C-114.93840286 92.15643402 -114.26743073 92.26208679 -113.5761261 92.37094116 C-111 93 -111 93 -108.05839539 94.47692871 C-103.76054992 96.19558682 -100.56275051 97.13311306 -96 96 C-87.9348468 91.2375419 -81.51230563 83.66241032 -75.09389806 76.91898894 C-72.47603415 74.18813284 -69.80664303 71.50860141 -67.1424408 68.82307434 C-62.11230193 63.73712067 -57.12977506 58.60708171 -52.16298527 53.459328 C-46.50343573 47.59815779 -40.79231128 41.78838853 -35.07641423 35.98223913 C-23.32619758 24.04417761 -11.64199316 12.04364532 0 0 Z " fill="#000000" transform="translate(368,18)"/>
<path d="M0 0 C0.81694336 -0.0038269 1.63388672 -0.00765381 2.47558594 -0.01159668 C4.193372 -0.01430431 5.91120011 -0.00702398 7.62890625 0.00976562 C10.24313151 0.0311937 12.85460918 0.00992675 15.46875 -0.015625 C17.14583934 -0.01298152 18.82292698 -0.00785611 20.5 0 C21.65967285 -0.01214539 21.65967285 -0.01214539 22.84277344 -0.02453613 C28.40471829 0.07053206 31.66635874 1.34752436 36.25 4.53125 C40.13283672 9.43588585 41.40297748 13.1287816 41.3125 19.28125 C41.30347656 20.08046875 41.29445313 20.8796875 41.28515625 21.703125 C41.27355469 22.30640625 41.26195312 22.9096875 41.25 23.53125 C42.12011719 23.78132813 42.99023438 24.03140625 43.88671875 24.2890625 C47.40420086 25.58820224 49.98267308 27.28706521 53.0625 29.40625 C57.13682075 32.02699468 57.13682075 32.02699468 61.74609375 32.09765625 C63.24759162 31.34560619 64.72340121 30.53992298 66.16796875 29.68359375 C70.19254269 27.45610911 73.91922903 27.86594486 78.31640625 29.12109375 C87.67332799 32.97394388 91.93360943 44.2064078 96.5625 52.59375 C97.09939453 53.53541016 97.63628906 54.47707031 98.18945312 55.44726562 C101.93295818 62.23089332 104.0232265 67.38394423 102.5625 75.21875 C100.38477155 80.71492181 97.54194837 83.88527582 92.25 86.53125 C91.59 86.53125 90.93 86.53125 90.25 86.53125 C90.0164194 90.0717929 89.87520199 93.61035068 89.75 97.15625 C89.68296875 98.15527344 89.6159375 99.15429688 89.546875 100.18359375 C89.29365071 105.77622958 89.29365071 105.77622958 91.9609375 110.44042969 C94.04546126 112.01317897 94.04546126 112.01317897 96.22460938 113.22802734 C99.58262089 115.38871508 101.00122796 117.78493387 102.25 121.53125 C103.36650446 130.32848706 101.12610268 136.10790638 96.6875 143.59375 C96.17380859 144.50962891 95.66011719 145.42550781 95.13085938 146.36914062 C84.15437992 165.63593002 84.15437992 165.63593002 77.25 167.53125 C71.64173436 168.27069598 67.64115897 167.95350848 62.6875 165.15625 C60.53351248 163.9608272 60.53351248 163.9608272 58.25 163.53125 C55.59065926 164.61502243 53.69328231 166.02656521 51.46484375 167.83203125 C49.23706217 169.54117585 47.37606837 170.29658339 44.75 171.21875 C42.72578581 172.04734472 42.72578581 172.04734472 41.25 173.53125 C40.5905381 176.32059562 40.49838863 178.91089027 40.4296875 181.7734375 C40.14792331 186.09790528 38.90832495 188.10340993 36.25 191.53125 C30.85831953 195.28567736 26.95583037 196.13020611 20.46484375 196.0625 C19.64552872 196.0663269 18.82621368 196.07015381 17.98207092 196.07409668 C16.26008872 196.07680405 14.53806457 196.06952555 12.81616211 196.05273438 C10.19095758 196.03127826 7.56848057 196.05258832 4.94335938 196.078125 C3.26301484 196.07548205 1.58267199 196.07035775 -0.09765625 196.0625 C-0.87593277 196.07059692 -1.65420929 196.07869385 -2.45606995 196.08703613 C-7.66458551 195.99801809 -10.5970601 194.92992411 -14.75 191.53125 C-19.82404609 185.77152201 -19.82404609 185.77152201 -19.609375 182.17578125 C-19.48281935 178.89889385 -19.61606074 176.62613686 -20.75 173.53125 C-24.7595484 170.42247686 -29.11365514 168.53410427 -33.75 166.53125 C-34.74 165.87125 -35.73 165.21125 -36.75 164.53125 C-39.44208053 164.8146269 -41.50246034 165.41101645 -43.9375 166.59375 C-48.78249447 168.20874816 -53.67618322 168.63385566 -58.54272461 166.88818359 C-65.50705921 163.38059272 -68.85655613 156.78888814 -72.56176758 150.25830078 C-73.68544066 148.28486668 -74.84470059 146.33593857 -76.00976562 144.38671875 C-84.01503871 130.72583687 -84.01503871 130.72583687 -82.29833984 122.31958008 C-80.77756985 116.83979755 -77.31439191 113.70982654 -72.75 110.53125 C-71.76 110.03625 -71.76 110.03625 -70.75 109.53125 C-70.72494385 108.93586426 -70.6998877 108.34047852 -70.67407227 107.72705078 C-70.55822506 105.03655864 -70.43544804 102.3464266 -70.3125 99.65625 C-70.25352539 98.25052734 -70.25352539 98.25052734 -70.19335938 96.81640625 C-70.13051758 95.47255859 -70.13051758 95.47255859 -70.06640625 94.1015625 C-70.02974854 93.27414551 -69.99309082 92.44672852 -69.95532227 91.59423828 C-69.75 89.53125 -69.75 89.53125 -68.75 87.53125 C-69.471875 87.304375 -70.19375 87.0775 -70.9375 86.84375 C-75.85545515 84.54870426 -79.682097 80.53775201 -81.75 75.53125 C-83.26689911 66.44502434 -80.2406846 60.24351268 -75.75 52.53125 C-74.94388375 51.07761431 -74.13928756 49.62313499 -73.3359375 48.16796875 C-72.47622994 46.6419472 -71.6142557 45.11720035 -70.75 43.59375 C-70.14599365 42.5106958 -70.14599365 42.5106958 -69.52978516 41.40576172 C-66.26854572 35.808151 -62.8347482 32.00656436 -56.875 29.15625 C-51.54495017 28.09024003 -47.36817973 28.67456661 -42.5625 31.21875 C-39.8911048 32.85157446 -39.8911048 32.85157446 -37.52734375 31.828125 C-36.61082031 31.40015625 -35.69429687 30.9721875 -34.75 30.53125 C-33.58984375 30.01691406 -32.4296875 29.50257813 -31.234375 28.97265625 C-24.12692987 25.78686452 -24.12692987 25.78686452 -19.7578125 19.8046875 C-19.58727839 16.97186628 -19.58727839 16.97186628 -19.71875 14.1484375 C-19.7700853 9.84910622 -18.36997868 7.90964356 -15.75 4.53125 C-10.36797894 0.78620386 -6.47827379 -0.0678477 0 0 Z M-2.75 17.53125 C-2.84796875 18.32789063 -2.9459375 19.12453125 -3.046875 19.9453125 C-4.61706949 31.0720355 -4.61706949 31.0720355 -8.75 35.53125 C-11.29627589 37.43662651 -13.96613554 38.99938808 -16.75 40.53125 C-17.51183594 40.9540625 -18.27367187 41.376875 -19.05859375 41.8125 C-20.58983541 42.65945998 -22.12495849 43.49944427 -23.6640625 44.33203125 C-25.97102659 45.60214749 -25.97102659 45.60214749 -28.75 47.78125 C-32.78335316 50.13403935 -36.08986857 50.87029981 -40.75 50.53125 C-44.54697822 49.47653383 -48.13933202 48.10374652 -51.75 46.53125 C-53.16761307 48.88485118 -54.5841104 51.23911228 -56 53.59375 C-56.39574219 54.25052734 -56.79148437 54.90730469 -57.19921875 55.58398438 C-57.99413838 56.90667851 -58.78515446 58.23172639 -59.57226562 59.55908203 C-60.35871034 60.87601828 -61.15963523 62.1844124 -61.97460938 63.48388672 C-62.97617558 65.12199048 -63.87216104 66.8236442 -64.75 68.53125 C-63.41542555 72.53497335 -61.21074494 73.42361303 -57.7578125 75.640625 C-53.01422729 80.10734726 -52.5641978 84.84769737 -52.3515625 91.09375 C-52.3436334 93.5729163 -52.35190306 96.05217862 -52.375 98.53125 C-52.36339844 99.77648437 -52.35179687 101.02171875 -52.33984375 102.3046875 C-52.38268326 115.69917339 -52.38268326 115.69917339 -57.25 121.23828125 C-59.71926195 123.05807586 -62.19721057 124.82939038 -64.75 126.53125 C-62.9510497 131.60759826 -60.25973545 136.16838611 -57.625 140.84375 C-57.15707031 141.67970703 -56.68914063 142.51566406 -56.20703125 143.37695312 C-55.0573741 145.42991233 -53.90496198 147.48127202 -52.75 149.53125 C-50.13201451 149.05013015 -47.9162601 148.60976171 -45.5 147.46875 C-40.07150226 145.61812577 -34.87609068 145.69595099 -29.6875 148.21875 C-26.3001546 150.11700495 -23.02717567 152.20661689 -19.765625 154.3125 C-17.72750317 155.54485273 -15.66307726 156.53783674 -13.5 157.53125 C-9.26308915 159.57895151 -6.8576922 162.31586559 -4.75 166.53125 C-4.5224985 168.40181791 -4.34037189 170.27810958 -4.1875 172.15625 C-4.10371094 173.15914062 -4.01992187 174.16203125 -3.93359375 175.1953125 C-3.87300781 175.96617187 -3.81242187 176.73703125 -3.75 177.53125 C5.27253886 178.37055594 14.1901941 178.65349626 23.25 178.53125 C23.34796875 177.73460937 23.4459375 176.93796875 23.546875 176.1171875 C25.32939076 163.48591204 25.32939076 163.48591204 30.8671875 159.3125 C32.95186496 157.96308222 35.0843667 156.74679901 37.25 155.53125 C39.33356711 154.30247965 41.41688906 153.07329353 43.5 151.84375 C45.40993162 150.72797388 47.32593332 149.62247067 49.25 148.53125 C49.91773438 148.139375 50.58546875 147.7475 51.2734375 147.34375 C55.36169439 145.66320171 59.92181858 146.09215913 64.25 146.53125 C67.75 148.09375 67.75 148.09375 70.25 149.53125 C73.63352229 148.40340924 73.8040877 148.07382785 75.40625 145.109375 C75.78910156 144.41328125 76.17195312 143.7171875 76.56640625 143 C76.95699219 142.2678125 77.34757813 141.535625 77.75 140.78125 C78.53070837 139.34866303 79.31194677 137.91636476 80.09375 136.484375 C80.46113281 135.80310547 80.82851562 135.12183594 81.20703125 134.41992188 C82.10156748 132.80004072 83.06047752 131.2160014 84.03125 129.640625 C85.4167592 127.64865289 85.4167592 127.64865289 85.25 125.53125 C83.55315786 124.34669841 83.55315786 124.34669841 81.4375 123.21875 C77.87855471 121.04942823 75.79701929 119.53529994 74.25 115.53125 C73.11960837 108.87909319 73.03682707 102.13639691 73 95.40625 C72.9690625 93.98119141 72.9690625 93.98119141 72.9375 92.52734375 C72.90183296 86.09836018 73.32743272 80.85719246 77.75 75.82421875 C80.21926195 74.00442414 82.69721057 72.23310962 85.25 70.53125 C83.44988143 65.49910035 80.83743879 60.93863982 78.25 56.28125 C77.79882812 55.45367187 77.34765625 54.62609375 76.8828125 53.7734375 C76.44710937 52.98710937 76.01140625 52.20078125 75.5625 51.390625 C75.16675781 50.67358398 74.77101562 49.95654297 74.36328125 49.21777344 C73.34593829 47.37084817 73.34593829 47.37084817 71.25 46.53125 C69.70463162 47.13888067 68.18699219 47.81787657 66.6875 48.53125 C61.42134783 50.66780317 57.68544708 51.44863606 52.25 49.53125 C48.85152302 47.70292863 45.63654716 45.70680901 42.41015625 43.58984375 C39.08978757 41.42688418 35.69679221 39.59405073 32.15234375 37.83203125 C27.20774896 34.45102496 25.6536581 30.42935761 24.5 24.71875 C24.25765625 23.55730469 24.0153125 22.39585937 23.765625 21.19921875 C23.59546875 20.31878906 23.4253125 19.43835938 23.25 18.53125 C14.56320899 17.81163418 5.96700174 17.38756316 -2.75 17.53125 Z " fill="#000000" transform="translate(97.75,300.46875)"/>
<path d="M0 0 C10.63879445 8.01319454 18.03916224 17.37500003 20.6875 30.6875 C22.17610155 45.466963 20.68515734 58.32023658 11.53125 70.44140625 C4.04011293 79.56726179 -5.34743416 86.87641063 -17.3125 88.6875 C-31.45295902 89.96836177 -44.33755554 89.06844427 -56.1875 80.4375 C-65.92147921 72.06048815 -74.2261099 61.69049732 -75.53369141 48.44726562 C-76.33518162 31.70805722 -73.63887295 19.75156979 -62.65625 6.72265625 C-46.76679612 -10.40347683 -19.22019308 -12.75600258 0 0 Z M-51.6875 20 C-58.32040592 28.68684553 -59.43801828 36.82682875 -58.3125 47.6875 C-56.46438407 55.82358431 -51.91600965 62.56146811 -45 67.2578125 C-36.37680822 72.22182092 -27.27160589 73.26565789 -17.453125 71.0390625 C-9.03405669 67.97996004 -3.26584525 62.92882912 1.1875 55.1875 C5.12619381 46.59985612 5.25791413 37.15623187 2.125 28.25 C-2.51775056 18.56287686 -9.33466313 13.46183881 -19.3125 9.6875 C-31.18773298 6.45054133 -43.47476717 11.12694694 -51.6875 20 Z " fill="#000000" transform="translate(135.3125,359.3125)"/>
<path d="M0 0 C2.31890817 1.09213094 4.62949748 2.19775048 6.9375 3.3125 C7.59685547 3.62123047 8.25621094 3.92996094 8.93554688 4.24804688 C10.66276021 5.08950978 12.3360527 6.03947665 14 7 C15 10 15 10 13.76953125 12.7578125 C5.18089595 27.53506525 -4.62776461 41.23962342 -16 54 C-16.46825195 54.52996582 -16.93650391 55.05993164 -17.41894531 55.60595703 C-22.92681425 61.82155145 -28.54237228 67.74508232 -35 73 C-36.16471809 71.83528191 -37.32799387 70.66908955 -38.484375 69.49609375 C-39.53197685 68.46199193 -40.60723483 67.45543849 -41.703125 66.47265625 C-43.375 64.9375 -43.375 64.9375 -46 62 C-45.76272645 58.54197359 -44.24559626 56.91441598 -41.7890625 54.6015625 C-41.12664551 53.96460449 -40.46422852 53.32764648 -39.78173828 52.67138672 C-39.07001465 51.9960791 -38.35829102 51.32077148 -37.625 50.625 C-30.3505957 43.53467608 -24.00075167 36.17925005 -18 28 C-17.56993652 27.42540039 -17.13987305 26.85080078 -16.69677734 26.25878906 C-10.42106625 17.87090237 -5.00520344 9.19950799 0 0 Z " fill="#000000" transform="translate(400,389)"/>
<path d="M0 0 C1.23104155 3.68400584 0.90767252 6.91474976 0.5625 10.75 C0.46066406 11.92046875 0.35882813 13.0909375 0.25390625 14.296875 C0.12822266 15.63492188 0.12822266 15.63492188 0 17 C-1.1746582 17.02187378 -1.1746582 17.02187378 -2.37304688 17.04418945 C-23.97993066 17.49039115 -45.30269603 18.52507786 -66.38378906 23.72973633 C-70.13860076 24.65401847 -73.06293909 25 -77 25 C-78.32 19.72 -79.64 14.44 -81 9 C-54.87704623 -0.21523294 -27.35221129 -0.3433553 0 0 Z " fill="#000000" transform="translate(238,71)"/>
</svg>
