<?xml version="1.0" encoding="UTF-8"?>
<svg version="1.1" xmlns="http://www.w3.org/2000/svg" width="512" height="512">
<path d="M0 0 C1.01790619 0.00215515 2.03581238 0.0043103 3.08456421 0.00653076 C17.69363523 0.05620146 32.02575853 0.30709809 46.375 3.3125 C47.34985352 3.51117676 48.32470703 3.70985352 49.32910156 3.91455078 C88.37782454 12.08284366 124.83813271 27.70153311 156.375 52.3125 C157.27089844 52.99699219 158.16679687 53.68148437 159.08984375 54.38671875 C165.85375932 59.65466563 172.17242313 65.40219115 178.375 71.3125 C178.97538086 71.88419922 179.57576172 72.45589844 180.19433594 73.04492188 C188.53034882 81.04095281 196.17384608 89.25373428 203.05566406 98.53564453 C204.41568182 100.36728947 205.79649374 102.18190483 207.1796875 103.99609375 C213.5480373 112.42343333 219.17969786 121.11991515 224.375 130.3125 C224.73803223 130.94285156 225.10106445 131.57320312 225.47509766 132.22265625 C247.08503355 169.97093421 256.85198837 212.73995161 256.6875 255.9375 C256.68534485 256.95540619 256.6831897 257.97331238 256.68096924 259.02206421 C256.63129854 273.63113523 256.38040191 287.96325853 253.375 302.3125 C253.07698486 303.77478027 253.07698486 303.77478027 252.77294922 305.26660156 C244.60465634 344.31532454 228.98596689 380.77563271 204.375 412.3125 C203.69050781 413.20839844 203.00601562 414.10429687 202.30078125 415.02734375 C197.03283437 421.79125932 191.28530885 428.10992313 185.375 434.3125 C184.51745117 435.21307129 184.51745117 435.21307129 183.64257812 436.13183594 C175.6343274 444.48058817 167.41011118 452.12586051 158.11230469 459.01513672 C156.39124144 460.30037142 154.698612 461.6167016 153.0078125 462.94140625 C122.05599233 486.84699932 84.66878791 502.15926624 46.375 509.3125 C45.56998047 509.47476074 44.76496094 509.63702148 43.93554688 509.80419922 C13.88950647 515.6788185 -20.75595352 514.58629779 -50.625 508.3125 C-52.14794678 507.99901611 -52.14794678 507.99901611 -53.70166016 507.67919922 C-90.93790584 499.76731191 -125.56559467 483.59756002 -155.625 460.3125 C-156.97271484 459.28382813 -156.97271484 459.28382813 -158.34765625 458.234375 C-165.10647392 452.96442525 -171.42437048 447.22095326 -177.625 441.3125 C-178.22538086 440.74080078 -178.82576172 440.16910156 -179.44433594 439.58007812 C-187.79308817 431.5718274 -195.43836051 423.34761118 -202.32763672 414.04980469 C-203.61287142 412.32874144 -204.9292016 410.636112 -206.25390625 408.9453125 C-230.15949932 377.99349233 -245.47176624 340.60628791 -252.625 302.3125 C-252.78726074 301.50748047 -252.94952148 300.70246094 -253.11669922 299.87304688 C-258.58955505 271.88184616 -258.4709259 238.22377604 -252.625 210.3125 C-252.42632324 209.33764648 -252.22764648 208.36279297 -252.02294922 207.35839844 C-241.7272891 158.1397446 -219.29081567 114.71000304 -184.625 78.3125 C-184.05475098 77.71356934 -183.48450195 77.11463867 -182.89697266 76.49755859 C-174.89943802 68.16006957 -166.68545927 60.51490955 -157.40185547 53.63183594 C-155.57021053 52.27181818 -153.75559517 50.89100626 -151.94140625 49.5078125 C-143.51406667 43.1394627 -134.81758485 37.50780214 -125.625 32.3125 C-124.99464844 31.94946777 -124.36429688 31.58643555 -123.71484375 31.21240234 C-85.96656579 9.60246645 -43.19754839 -0.16448837 0 0 Z " fill="#4BAE4F" transform="translate(255.625,-0.3125)"/>
<path d="M0 0 C1.06460449 -0.0157608 2.12920898 -0.03152161 3.22607422 -0.04776001 C4.3657666 -0.03763885 5.50545898 -0.0275177 6.6796875 -0.01708984 C8.44916748 -0.02426529 8.44916748 -0.02426529 10.25439453 -0.03158569 C12.74578181 -0.03498461 15.23721369 -0.025783 17.72851562 -0.00488281 C21.54137649 0.02187923 25.35129318 -0.00463477 29.1640625 -0.03662109 C31.585944 -0.033317 34.00782366 -0.02691078 36.4296875 -0.01708984 C38.13922607 -0.03227158 38.13922607 -0.03227158 39.88330078 -0.04776001 C41.48020752 -0.0241188 41.48020752 -0.0241188 43.109375 0 C44.50905518 0.00596695 44.50905518 0.00596695 45.93701172 0.01205444 C49.85076028 0.96133558 51.22369375 2.3700097 53.5546875 5.64697266 C54.2546058 8.99466579 54.18715459 12.26055775 54.12231445 15.66967773 C54.12340965 17.17769958 54.12340965 17.17769958 54.12452698 18.71618652 C54.12104832 22.03351108 54.0821722 25.34942516 54.04296875 28.66650391 C54.03364166 30.96863539 54.02652506 33.2707768 54.02153015 35.57292175 C54.00245243 41.6279548 53.95334389 47.68238681 53.89801025 53.73718262 C53.84683511 59.91731638 53.82401975 66.09754739 53.79882812 72.27783203 C53.74522678 84.40114277 53.65990376 96.52400771 53.5546875 108.64697266 C54.83397629 108.6358696 56.11326508 108.62476654 57.43132019 108.61332703 C69.4822071 108.51200745 81.53300769 108.43703407 93.58422375 108.3879118 C99.78004381 108.36180852 105.97552028 108.32639601 112.17114258 108.26977539 C118.14931431 108.21548337 124.12715536 108.18555763 130.10555458 108.17258644 C132.38737507 108.16334164 134.66917729 108.14528879 136.95085716 108.11832237 C140.14496467 108.08207066 143.33770259 108.07702586 146.53198242 108.0793457 C147.94970695 108.05238113 147.94970695 108.05238113 149.39607239 108.02487183 C153.8432423 108.05986408 155.93535401 108.20555604 159.64265442 110.84785461 C161.73929363 113.91722654 162.17815866 115.33059518 162.16992188 119.00048828 C162.18388 120.56736389 162.18388 120.56736389 162.19812012 122.16589355 C162.17352722 123.84262146 162.17352722 123.84262146 162.1484375 125.55322266 C162.14847778 126.71067993 162.14851807 127.86813721 162.14855957 129.06066895 C162.14320403 131.5050195 162.12562018 133.9493696 162.09667969 136.39355469 C162.05483811 140.13351099 162.05561115 143.87166558 162.0625 147.61181641 C162.05200695 149.988131 162.03906824 152.36443631 162.0234375 154.74072266 C162.02323608 155.85854126 162.02303467 156.97635986 162.02282715 158.12805176 C161.99895935 159.69492737 161.99895935 159.69492737 161.97460938 161.29345703 C161.96619019 162.20881226 161.957771 163.12416748 161.94909668 164.06726074 C161.4720385 167.18755492 160.38542123 169.095799 158.5546875 171.64697266 C156.25170094 172.79846594 154.96472652 172.77034253 152.40390015 172.76722717 C151.53449295 172.76860184 150.66508575 172.7699765 149.76933289 172.77139282 C148.81339737 172.76779755 147.85746185 172.76420227 146.87255859 172.76049805 C145.36519386 172.76071709 145.36519386 172.76071709 143.82737732 172.76094055 C140.49427152 172.76024195 137.16122108 172.75245198 133.828125 172.74462891 C131.52169831 172.74276454 129.21527122 172.74134073 126.90884399 172.74034119 C120.82937533 172.73651747 114.74993044 172.72668842 108.67047119 172.71563721 C102.47042157 172.70541996 96.27036811 172.70084289 90.0703125 172.69580078 C77.89842704 172.68506604 65.72655924 172.66799135 53.5546875 172.64697266 C53.56356995 173.92848206 53.57245239 175.20999146 53.581604 176.53033447 C53.6626247 188.59627832 53.7226217 200.66216711 53.76193619 212.72832108 C53.78282753 218.9319516 53.81117393 225.13536287 53.85644531 231.33886719 C53.89984708 237.32350576 53.92381295 243.30793319 53.93419647 249.29271698 C53.94159798 251.57813594 53.95605104 253.8635431 53.97760773 256.14887238 C54.00656566 259.34543502 54.0106466 262.54112066 54.00878906 265.73779297 C54.02317017 266.68653793 54.03755127 267.6352829 54.05236816 268.61277771 C54.01189201 275.03280706 54.01189201 275.03280706 51.65130615 278.20379639 C48.36840051 280.46353567 46.50033775 280.78462883 42.54174805 280.83984375 C40.97453255 280.86393814 40.97453255 280.86393814 39.37565613 280.88851929 C34.59525144 280.93291072 29.81498634 280.97403146 25.03442383 280.99707031 C22.51154358 281.01363722 19.98871041 281.04093649 17.46606445 281.07910156 C13.8325968 281.13380455 10.20022997 281.15573515 6.56640625 281.17041016 C5.43917648 281.19307953 4.31194672 281.2157489 3.15055847 281.23910522 C2.09629166 281.23625519 1.04202484 281.23340515 -0.04418945 281.23046875 C-1.43079521 281.24259903 -1.43079521 281.24259903 -2.84541321 281.25497437 C-6.76184889 280.33909289 -8.11917142 278.9172032 -10.4453125 275.64697266 C-11.14541386 272.29932284 -11.07777943 269.03337938 -11.01293945 265.62426758 C-11.01366959 264.61891968 -11.01439972 263.61357178 -11.01515198 262.57775879 C-11.01167332 259.26043423 -10.9727972 255.94452015 -10.93359375 252.62744141 C-10.92426666 250.32530993 -10.91715006 248.02316851 -10.91215515 245.72102356 C-10.89307743 239.66599051 -10.84396889 233.6115585 -10.78863525 227.5567627 C-10.73746011 221.37662893 -10.71464475 215.19639792 -10.68945312 209.01611328 C-10.63585178 196.89280254 -10.55052876 184.76993761 -10.4453125 172.64697266 C-11.7268219 172.6558551 -13.0083313 172.66473755 -14.32867432 172.67388916 C-26.39461816 172.75490986 -38.46050696 172.81490686 -50.52666092 172.85422134 C-56.73029145 172.87511269 -62.93370271 172.90345909 -69.13720703 172.94873047 C-75.12184561 172.99213224 -81.10627303 173.0160981 -87.09105682 173.02648163 C-89.37647578 173.03388313 -91.66188294 173.0483362 -93.94721222 173.06989288 C-97.14377486 173.09885081 -100.33946051 173.10293175 -103.53613281 173.10107422 C-104.95925026 173.12264587 -104.95925026 173.12264587 -106.41111755 173.14465332 C-112.8311469 173.10417717 -112.8311469 173.10417717 -116.00213623 170.74359131 C-118.26187551 167.46068566 -118.58296868 165.59262291 -118.63818359 161.6340332 C-118.65424652 160.58922287 -118.67030945 159.54441254 -118.68685913 158.46794128 C-118.73125056 153.6875366 -118.7723713 148.90727149 -118.79541016 144.12670898 C-118.81197706 141.60382874 -118.83927634 139.08099557 -118.87744141 136.55834961 C-118.93214439 132.92488196 -118.95407499 129.29251512 -118.96875 125.65869141 C-118.99141937 124.53146164 -119.01408875 123.40423187 -119.03744507 122.24284363 C-119.03459503 121.18857681 -119.031745 120.13431 -119.02880859 119.0480957 C-119.03689545 118.12369186 -119.0449823 117.19928802 -119.05331421 116.24687195 C-118.13743274 112.33043626 -116.71554304 110.97311374 -113.4453125 108.64697266 C-110.09766269 107.9468713 -106.83171923 108.01450572 -103.42260742 108.0793457 C-102.41725952 108.07861557 -101.41191162 108.07788544 -100.37609863 108.07713318 C-97.05877408 108.08061183 -93.74286 108.11948796 -90.42578125 108.15869141 C-88.12364977 108.16801849 -85.82150836 108.1751351 -83.5193634 108.18013 C-77.46433036 108.19920772 -71.40989835 108.24831627 -65.35510254 108.3036499 C-59.17496878 108.35482505 -52.99473776 108.37764041 -46.81445312 108.40283203 C-34.69114238 108.45643338 -22.56827745 108.5417564 -10.4453125 108.64697266 C-10.45641556 107.36768387 -10.46751862 106.08839508 -10.47895813 104.77033997 C-10.58027771 92.71945306 -10.65525108 80.66865247 -10.70437336 68.61743641 C-10.73047664 62.42161634 -10.76588914 56.22613988 -10.82250977 50.03051758 C-10.87680179 44.05234585 -10.90672753 38.0745048 -10.91969872 32.09610558 C-10.92894351 29.81428508 -10.94699637 27.53248287 -10.97396278 25.25080299 C-11.0102145 22.05669549 -11.0152593 18.86395757 -11.01293945 15.66967773 C-11.03091583 14.72452805 -11.04889221 13.77937836 -11.06741333 12.80558777 C-11.03245672 8.36294816 -10.88592895 6.26640108 -8.25016785 2.56098938 C-5.15843842 0.45121148 -3.6988267 0.0157684 0 0 Z " fill="#FEFEFE" transform="translate(234.4453125,115.35302734375)"/>
</svg>
