<?xml version="1.0" encoding="UTF-8"?>
<svg version="1.1" xmlns="http://www.w3.org/2000/svg" width="512" height="512">
<path d="M0 0 C1.01790619 0.00215515 2.03581238 0.0043103 3.08456421 0.00653076 C17.69363523 0.05620146 32.02575853 0.30709809 46.375 3.3125 C47.34985352 3.51117676 48.32470703 3.70985352 49.32910156 3.91455078 C88.37782454 12.08284366 124.83813271 27.70153311 156.375 52.3125 C157.27089844 52.99699219 158.16679687 53.68148437 159.08984375 54.38671875 C174.64561709 66.50203669 189.29582193 80.73146847 201.375 96.3125 C202.14972656 97.27027344 202.92445313 98.22804688 203.72265625 99.21484375 C238.26056965 142.61986011 256.81394766 197.76289597 256.69067383 253.03979492 C256.6875221 255.97938487 256.71104926 258.9179558 256.73632812 261.85742188 C256.78098737 275.23056192 255.57551542 288.12666711 253.375 301.3125 C253.09281616 303.01805054 253.09281616 303.01805054 252.80493164 304.75805664 C245.77946967 343.86954746 228.79665906 381.05202178 204.375 412.3125 C203.61574219 413.28445313 202.85648437 414.25640625 202.07421875 415.2578125 C189.73986402 430.63741644 175.93895499 445.19015196 160.375 457.3125 C159.43914062 458.07691406 158.50328125 458.84132813 157.5390625 459.62890625 C125.58628299 485.2157721 86.41988322 501.72551276 46.375 509.3125 C45.56562988 509.47621094 44.75625977 509.63992188 43.92236328 509.80859375 C13.88110013 515.67977137 -20.7615176 514.58512909 -50.625 508.3125 C-52.14794678 507.99901611 -52.14794678 507.99901611 -53.70166016 507.67919922 C-90.84546555 499.78695344 -125.70945445 483.68345578 -155.625 460.3125 C-156.59695312 459.55324219 -157.56890625 458.79398437 -158.5703125 458.01171875 C-173.94991644 445.67736402 -188.50265196 431.87645499 -200.625 416.3125 C-201.77162109 414.90871094 -201.77162109 414.90871094 -202.94140625 413.4765625 C-228.5282721 381.52378299 -245.03801276 342.35738322 -252.625 302.3125 C-252.78871094 301.50312988 -252.95242187 300.69375977 -253.12109375 299.85986328 C-258.59069558 271.87335724 -258.46977511 238.21828161 -252.625 210.3125 C-252.42632324 209.33764648 -252.22764648 208.36279297 -252.02294922 207.35839844 C-241.93598313 159.13741149 -219.89911449 114.53770064 -185.40722656 79.14160156 C-183.63301167 77.32072238 -181.87518486 75.48496071 -180.1171875 73.6484375 C-173.01562574 66.30860161 -165.60158994 59.73928631 -157.40917969 53.64355469 C-155.59628085 52.2910746 -153.80174757 50.91656557 -152.0078125 49.5390625 C-143.60124472 43.15234877 -134.85975388 37.61076633 -125.65234375 32.45166016 C-123.78933792 31.40484113 -121.94116361 30.33571119 -120.09375 29.26171875 C-83.4933446 8.69459905 -41.63834482 -0.15855121 0 0 Z " fill="#F44336" transform="translate(255.625,-0.3125)"/>
<path d="M0 0 C1.61648437 -0.04253906 1.61648437 -0.04253906 3.265625 -0.0859375 C10.98167187 0.93479516 16.24482596 5.28222484 21.53320312 10.70410156 C22.15859985 11.32891418 22.78399658 11.95372681 23.42834473 12.59747314 C25.47228511 14.64417765 27.50172604 16.70463296 29.53125 18.765625 C30.95383422 20.19567752 32.3773101 21.62484354 33.80163574 23.05316162 C37.53245645 26.79919208 41.25110342 30.55708125 44.96728516 34.31762695 C48.76774119 38.15913604 52.57966768 41.989226 56.390625 45.8203125 C63.85497664 53.32745279 71.30650857 60.84717985 78.75 68.375 C82.93409865 66.74022932 85.70591462 63.66463221 88.78442383 60.52001953 C89.67551598 59.62213715 89.67551598 59.62213715 90.58460999 58.70611572 C91.87230828 57.40747093 93.15772354 56.10655924 94.44111061 54.80365372 C96.47557379 52.73899475 98.51667041 50.68111206 100.55973816 48.62496948 C106.36684531 42.7781434 112.16124186 36.91877883 117.95239258 31.05615234 C121.49733798 27.46838745 125.04964704 23.88804468 128.60632896 20.31191635 C129.95718309 18.95052319 131.30511611 17.58622485 132.65000343 16.21893692 C134.53562681 14.30196439 136.43043066 12.39451331 138.32739258 10.48876953 C138.87568726 9.92654694 139.42398193 9.36432434 139.9888916 8.7850647 C144.33571756 4.44844304 148.77483342 0.86191054 154.99609375 -0.15625 C162.60747405 -0.08171996 168.60872923 0.40362752 174.2734375 5.8359375 C178.4937117 10.64168326 180.04962739 14.26355184 180.125 20.625 C180.15335938 21.70265625 180.18171875 22.7803125 180.2109375 23.890625 C179.19020484 31.60667187 174.84277516 36.86982596 169.42089844 42.15820312 C168.79608582 42.78359985 168.17127319 43.40899658 167.52752686 44.05334473 C165.48082235 46.09728511 163.42036704 48.12672604 161.359375 50.15625 C159.92932248 51.57883422 158.50015646 53.0023101 157.07183838 54.42663574 C153.32580792 58.15745645 149.56791875 61.87610342 145.80737305 65.59228516 C141.96586396 69.39274119 138.135774 73.20466768 134.3046875 77.015625 C126.79754721 84.47997664 119.27782015 91.93150857 111.75 99.375 C113.38477068 103.55909865 116.46036779 106.33091462 119.60498047 109.40942383 C120.50286285 110.30051598 120.50286285 110.30051598 121.41888428 111.20960999 C122.71752907 112.49730828 124.01844076 113.78272354 125.32134628 115.06611061 C127.38600525 117.10057379 129.44388794 119.14167041 131.50003052 121.18473816 C137.3468566 126.99184531 143.20622117 132.78624186 149.06884766 138.57739258 C152.65661255 142.12233798 156.23695532 145.67464704 159.81308365 149.23132896 C161.17447681 150.58218309 162.53877515 151.93011611 163.90606308 153.27500343 C165.82303561 155.16062681 167.73048669 157.05543066 169.63623047 158.95239258 C170.19845306 159.50068726 170.76067566 160.04898193 171.3399353 160.6138916 C175.67655696 164.96071756 179.26308946 169.39983342 180.28125 175.62109375 C180.20648443 183.25652773 179.68677114 189.168587 174.32421875 194.8984375 C169.49189149 199.21881278 164.88712157 200.68986604 158.5 200.875 C157.44296875 200.9265625 156.3859375 200.978125 155.296875 201.03125 C144.23397988 198.98437073 135.87104644 187.88025113 128.30859375 180.2265625 C126.932061 178.84442553 125.55485773 177.46295607 124.17701721 176.0821228 C120.57503319 172.46875516 116.98215523 168.84646633 113.39117432 165.22216797 C109.71616785 161.51632015 106.03251656 157.8190869 102.34960938 154.12109375 C95.14131 146.88074476 87.94261257 139.63093026 80.75 132.375 C76.56733006 134.00821431 73.80375744 137.08277895 70.73144531 140.22998047 C70.13899017 140.82856873 69.54653503 141.42715698 68.93612671 142.04388428 C67.6517362 143.34256587 66.36959609 144.64347609 65.08945465 145.94634628 C63.05927582 148.0113601 61.02203916 150.06915932 58.98260498 152.12503052 C53.18555819 157.97092643 47.39967828 163.82777872 41.62304688 169.69384766 C38.08680249 173.28383394 34.54073476 176.86387432 30.98854828 180.43808365 C29.64041153 181.79859323 28.29607583 183.1628807 26.95572662 184.53106308 C25.07503345 186.45044581 23.18209978 188.35695023 21.28613281 190.26123047 C20.74143341 190.82345306 20.19673401 191.38567566 19.63552856 191.9649353 C14.1238547 197.44932418 8.18939197 200.94732598 0.25 200.9375 C-7.32626973 200.69168824 -11.50497528 198.2644997 -16.625 192.875 C-19.55560353 188.36637918 -20.59424256 184.49863178 -20.75 179.125 C-20.82734375 177.53945313 -20.82734375 177.53945313 -20.90625 175.921875 C-18.85937073 164.85897988 -7.75525113 156.49604644 -0.1015625 148.93359375 C1.28057447 147.557061 2.66204393 146.17985773 4.0428772 144.80201721 C7.65624484 141.20003319 11.27853367 137.60715523 14.90283203 134.01617432 C18.60867985 130.34116785 22.3059131 126.65751656 26.00390625 122.97460938 C33.24425524 115.76631 40.49406974 108.56761257 47.75 101.375 C46.11678569 97.19233006 43.04222105 94.42875744 39.89501953 91.35644531 C39.29643127 90.76399017 38.69784302 90.17153503 38.08111572 89.56112671 C36.78243413 88.2767362 35.48152391 86.99459609 34.17865372 85.71445465 C32.1136399 83.68427582 30.05584068 81.64703916 27.99996948 79.60760498 C22.15407357 73.81055819 16.29722128 68.02467828 10.43115234 62.24804688 C6.84116606 58.71180249 3.26112568 55.16573476 -0.31308365 51.61354828 C-1.67359323 50.26541153 -3.0378807 48.92107583 -4.40606308 47.58072662 C-6.32544581 45.70003345 -8.23195023 43.80709978 -10.13623047 41.91113281 C-10.97956436 41.09408371 -10.97956436 41.09408371 -11.8399353 40.26052856 C-17.32432418 34.7488547 -20.82232598 28.81439197 -20.8125 20.875 C-20.61608131 14.82109552 -19.31155323 10.86934169 -15.25 6.375 C-10.37990834 1.86125651 -6.65415006 0.07884064 0 0 Z " fill="#F9F8F7" transform="translate(176.25,155.625)"/>
</svg>
